<?xml version="1.0" standalone="no"?>
<!DOCTYPE svg PUBLIC "-//W3C//DTD SVG 20010904//EN"
 "http://www.w3.org/TR/2001/REC-SVG-20010904/DTD/svg10.dtd">
<svg version="1.0" xmlns="http://www.w3.org/2000/svg"
 width="300.000000pt" height="67.000000pt" viewBox="0 0 300.000000 67.000000"
 preserveAspectRatio="xMidYMid meet">
<metadata>
Created by potrace 1.10, written by Peter Selinger 2001-2011
</metadata>
<g transform="translate(0.000000,67.000000) scale(0.100000,-0.100000)"
fill="#000000" stroke="none">
<path d="M454 407 c-25 -22 -29 -32 -29 -80 0 -48 4 -60 29 -86 66 -69 158
-17 155 86 l-2 38 -6 -45 c-7 -42 -26 -90 -37 -90 -2 0 2 13 11 30 17 34 20
92 4 123 -10 21 -10 21 5 3 9 -11 16 -15 16 -9 0 12 -26 35 -44 40 -59 15 -74
14 -102 -10z m85 -15 c19 -18 24 -92 9 -122 -14 -25 -58 -41 -58 -20 0 6 -4 9
-9 6 -5 -4 -7 4 -4 16 4 19 3 20 -6 8 -15 -21 -15 84 0 111 11 22 45 23 68 1z"/>
<path d="M649 418 c-24 -20 -28 -41 -14 -75 11 -26 18 -31 37 -26 19 4 20 3 8
-7 -12 -9 -10 -10 13 -5 21 4 27 3 21 -6 -5 -9 -2 -10 9 -6 17 6 33 -25 22
-43 -8 -13 -62 -13 -70 0 -4 6 -11 8 -16 5 -5 -3 -6 1 -3 9 10 27 -22 18 -34
-9 -13 -28 -2 -40 29 -30 15 5 19 4 15 -4 -5 -7 7 -11 37 -11 54 0 90 32 85
76 -3 25 -11 32 -68 55 -36 14 -65 31 -64 37 1 7 2 17 3 22 1 13 51 2 72 -16
21 -19 33 -18 25 2 -3 8 -2 12 4 9 6 -3 10 -1 10 4 0 6 0 14 0 18 0 13 -105
14 -121 1z"/>
<path d="M874 395 c0 -20 -6 -41 -14 -48 -10 -9 -11 -9 -6 1 4 6 3 12 -2 12
-15 0 -24 -33 -11 -40 13 -8 -9 -58 -35 -79 -24 -20 -10 -31 40 -31 41 0 43 1
32 19 -7 11 -16 17 -20 15 -10 -6 -9 24 0 48 7 16 9 15 26 -7 17 -23 44 -37
31 -16 -3 5 -1 12 4 16 16 9 34 -34 22 -49 -16 -19 -3 -26 46 -26 l44 0 -18
24 c-10 13 -21 22 -25 20 -3 -2 -11 10 -17 28 -14 38 -14 35 5 42 14 5 15 4 5
-8 -10 -12 -9 -14 8 -9 17 4 19 9 10 25 -6 12 -19 18 -32 16 -18 -2 -22 2 -20
20 2 13 -1 21 -7 17 -6 -3 -10 3 -10 15 0 13 4 19 12 14 7 -4 8 -3 4 4 -4 7
-22 12 -39 12 -30 0 -32 -3 -33 -35z m46 -71 c0 -18 -27 -25 -39 -10 -7 9 -7
22 2 45 l12 32 12 -28 c7 -15 12 -33 13 -39z"/>
<path d="M1040 421 c0 -6 5 -11 10 -11 6 0 10 -35 10 -84 0 -47 -4 -88 -10
-91 -30 -18 2 -25 120 -25 83 0 130 4 130 10 0 6 -7 13 -15 16 -16 7 -20 41
-7 61 6 9 13 3 26 -17 17 -29 41 -34 30 -6 -10 26 13 25 25 0 8 -18 8 -30 1
-39 -15 -18 -2 -25 48 -25 44 0 45 0 27 20 -10 11 -22 17 -27 14 -6 -4 -7 2
-3 16 4 14 3 20 -3 16 -5 -3 -13 1 -16 10 -10 27 -7 36 14 29 21 -7 25 1 11
24 -5 8 -18 12 -31 8 -18 -5 -21 -2 -17 14 3 12 1 17 -6 12 -7 -4 -8 0 -3 13
14 35 11 39 -26 42 -32 3 -38 0 -36 -15 3 -37 -3 -51 -22 -56 -20 -5 -29 -37
-11 -37 16 0 -8 -55 -34 -80 -23 -22 -23 -22 -34 -2 -16 31 -13 41 4 12 8 -14
14 -20 15 -14 0 5 -7 19 -15 30 -15 19 -16 19 -31 -3 -11 -15 -27 -23 -45 -23
l-29 0 0 85 c0 47 4 84 9 83 5 -2 11 2 13 7 1 6 -14 11 -34 13 -22 2 -38 -1
-38 -7z m276 -46 c-3 -8 -1 -15 4 -15 14 0 23 -41 11 -53 -8 -8 -16 -7 -28 5
-14 14 -14 21 -3 47 12 31 27 45 16 16z"/>
<path d="M1481 419 c-19 -7 -22 -12 -13 -21 17 -17 15 -58 -3 -58 -8 0 -15 -7
-15 -15 0 -8 7 -15 15 -15 17 0 21 -55 5 -65 -5 -3 -10 -13 -10 -21 0 -11 16
-14 73 -14 54 0 68 3 57 11 -12 9 -11 10 7 6 12 -3 26 0 31 7 15 19 6 64 -16
83 -20 17 -20 19 -5 33 15 13 16 12 9 -5 -4 -11 -3 -16 1 -11 4 4 8 20 8 36 0
16 -1 27 -3 25 -2 -2 -12 5 -23 16 -21 21 -77 25 -118 8z m99 -30 c14 -22 -8
-49 -40 -49 -27 0 -30 3 -30 34 0 32 2 34 31 31 17 -1 35 -8 39 -16z m7 -98
c4 -31 -13 -51 -46 -51 -24 0 -26 4 -27 39 -1 37 -1 38 34 37 29 -1 36 -5 39
-25z"/>
<path d="M1803 416 c-72 -53 -34 -206 52 -206 32 0 85 32 85 52 0 6 -9 0 -21
-13 l-21 -24 16 25 c9 13 17 47 18 75 l1 50 7 -50 7 -50 1 47 c2 36 -3 53 -21
73 -28 33 -92 44 -124 21z m80 -30 c36 -40 8 -160 -34 -144 -8 3 -18 6 -23 6
-17 1 -26 27 -26 76 0 77 41 108 83 62z"/>
<path d="M1968 418 c19 -19 16 -174 -3 -182 -31 -12 -13 -26 33 -26 45 1 46 1
27 18 -16 13 -20 31 -22 82 l-2 65 26 -82 c16 -50 31 -83 39 -83 8 0 14 4 14
9 0 5 3 18 6 28 5 15 4 16 -6 3 -10 -13 -11 -12 -6 3 3 10 6 24 6 30 0 7 5 6
11 -3 8 -12 9 -10 4 9 -5 18 -4 22 6 16 9 -6 11 -3 6 8 -3 9 -2 27 3 39 6 17
9 6 9 -44 1 -37 -4 -70 -9 -73 -25 -15 7 -24 90 -24 86 0 89 1 78 19 -7 10
-16 16 -20 14 -4 -3 -8 4 -8 16 0 13 4 19 11 14 8 -4 9 1 4 15 -7 22 -7 22 17
-1 14 -13 22 -27 20 -33 -3 -6 -1 -6 4 -2 5 5 10 13 10 18 1 5 2 15 3 22 1 6
9 -1 17 -16 11 -20 12 -32 5 -41 -16 -19 -3 -26 46 -26 l44 0 -18 24 c-10 13
-21 22 -25 19 -4 -2 -5 4 -1 13 5 12 3 15 -6 9 -10 -6 -11 -2 -6 15 5 15 4 20
-4 16 -6 -4 -11 -3 -11 2 0 6 7 12 15 16 23 9 18 28 -7 24 -19 -2 -23 1 -21
20 2 13 -1 21 -7 17 -6 -3 -10 -2 -10 4 0 5 5 13 10 16 19 12 -1 25 -37 25
-28 0 -34 -3 -29 -16 9 -23 -3 -54 -20 -54 -19 0 -30 -30 -14 -40 9 -6 10 -12
0 -31 -19 -36 -52 -69 -62 -63 -5 4 -8 50 -7 103 l3 96 -44 3 c-38 3 -42 1
-31 -12 10 -12 8 -26 -10 -76 -17 -48 -24 -58 -31 -46 -5 9 -6 26 -3 39 4 14
3 18 -3 9 -6 -9 -12 -2 -20 25 -6 20 -9 39 -7 42 3 2 5 -1 5 -8 0 -9 4 -9 14
1 19 18 2 28 -48 28 -31 0 -37 -3 -28 -12z m189 -140 c-2 -24 -4 -5 -4 42 0
47 2 66 4 43 2 -24 2 -62 0 -85z m163 45 c0 -20 -21 -26 -36 -11 -12 11 -12
20 -2 48 l12 35 12 -30 c7 -17 13 -35 14 -42z"/>
<path d="M2465 415 c-16 -7 -24 -14 -17 -14 20 -2 16 -77 -5 -86 -17 -6 -17
-7 0 -19 19 -14 23 -51 7 -61 -20 -12 2 -25 43 -25 32 0 38 3 29 12 -18 18
-16 78 3 78 13 0 35 -55 35 -87 0 -20 15 -23 49 -10 37 14 39 22 9 38 -21 11
-22 11 -10 -4 11 -13 10 -17 -10 -27 -21 -10 -21 -10 -5 3 12 10 15 17 7 22
-6 4 -9 13 -6 21 3 7 0 16 -6 20 -7 5 -8 2 -3 -6 6 -9 4 -11 -4 -6 -7 5 -10
15 -7 23 3 8 2 12 -3 9 -5 -3 -12 2 -15 11 -6 15 8 32 26 33 3 0 11 13 16 28
9 26 7 31 -18 45 -34 20 -74 21 -115 2z m44 -44 c1 33 33 44 49 18 10 -15 8
-23 -8 -39 -11 -11 -29 -20 -40 -20 -17 0 -20 6 -19 43 l2 42 7 -35 c6 -30 8
-31 9 -9z m9 -63 c-9 -7 -19 -26 -21 -43 -4 -28 -4 -28 -6 6 -1 39 4 49 28 49
13 0 13 -2 -1 -12z"/>
<path d="M1654 331 c-13 -13 24 -31 65 -30 25 0 40 3 33 6 -6 2 -10 8 -7 13 5
8 -83 19 -91 11z"/>
</g>
</svg>
